<svg viewBox="0 0 512 512" xmlns="http://www.w3.org/2000/svg" fill-rule="evenodd" clip-rule="evenodd" stroke-linejoin="round" stroke-miterlimit="2"><g transform="matrix(3.77176 0 0 3.86721 -2142.36 -5340.86)"><path fill="none" d="M568 1381.06h135.746v132.395H568z"/><clipPath id="a"><path d="M568 1381.06h135.746v132.395H568z"/></clipPath><g clip-path="url(#a)"><path d="M635.867 1382.673c-37.475 0-67.867 29.648-67.867 66.222 0 29.257 19.446 54.075 46.417 62.832 3.396.61 4.634-1.435 4.634-3.192 0-1.573-.059-5.735-.092-11.26-18.88 4-22.863-8.878-22.863-8.878-3.087-7.651-7.537-9.688-7.537-9.688-6.163-4.106.467-4.024.467-4.024 6.812.467 10.395 6.825 10.395 6.825 6.055 10.118 15.888 7.196 19.755 5.5.616-4.276 2.37-7.195 4.308-8.85-15.071-1.67-30.917-7.354-30.917-32.728 0-7.228 2.646-13.143 6.988-17.77-.7-1.674-3.03-8.41.666-17.524 0 0 5.696-1.781 18.663 6.788 5.412-1.471 11.22-2.203 16.992-2.231 5.766.028 11.57.76 16.991 2.231 12.959-8.569 18.646-6.788 18.646-6.788 3.704 9.114 1.375 15.85.68 17.525 4.35 4.626 6.974 10.54 6.974 17.769 0 25.44-15.87 31.037-30.987 32.676 2.433 2.044 4.604 6.085 4.604 12.26 0 8.854-.083 15.997-.083 18.167 0 1.773 1.225 3.834 4.666 3.188 26.95-8.777 46.38-33.579 46.38-62.828 0-36.574-30.392-66.222-67.88-66.222z" fill="#fff"/></g></g></svg>