<svg viewBox="0 0 512 512" xmlns="http://www.w3.org/2000/svg" fill-rule="evenodd" clip-rule="evenodd" stroke-linejoin="round" stroke-miterlimit="2"><path fill="none" d="M0 0h512v512.002H0z"/><g fill-rule="nonzero"><path d="M509.453 190.925c-7.1-37.502-27.289-60.864-47.978-75.309-21.396-14.94-47.024-22.615-73.12-22.615H18.006C5.121 93 .185 105.58.137 111.88c-.006.82.024 4.108.024 4.108s-.608 163.85.541 251.363c3.495 51.665 55.261 51.649 55.261 51.649s169.007-.496 250.06-1c3.8-.024 7.597-.433 11.284-1.356 46.149-11.546 50.923-54.418 50.429-78.317 92.76 5.154 158.206-60.302 141.717-147.403zm-104.2 85.036c-19.782 2.472-35.855.616-35.855.616V155.448h24.341c16.087 0 31.607 6.698 42.103 18.89 7.39 8.582 13.302 20.662 13.302 37.348 0 40.789-21.018 56.859-43.892 64.275z" fill="#fff"/><path d="M181.547 351.052c4.029 2.028 6.602-.492 6.602-.492s58.945-53.8 85.5-84.784c23.618-27.717 25.159-74.427-15.403-91.88-40.561-17.452-73.934 20.532-73.934 20.532-28.939-31.83-72.739-30.219-92.998-8.677-20.258 21.54-13.183 58.514 1.93 79.09 14.186 19.316 76.543 74.894 85.994 84.294 0 0 .689.719 2.31 1.917z" fill="#f15e5e"/></g></svg>