<svg viewBox="0 0 96 96" xmlns="http://www.w3.org/2000/svg" fill-rule="evenodd" clip-rule="evenodd" stroke-linejoin="round" stroke-miterlimit="2"><path d="M21 31.1c-8.98-3.21-14.6-8.03-14.6-13.5C6.4 7.73 24.67 0 48 0c23.33 0 41.6 7.73 41.6 17.6 0 5.45-5.57 10.25-14.49 13.45a1.6 1.6 0 01-.63.71 24.58 24.58 0 00-12 21.04c0 3.27.66 6.45 1.88 9.37 15.6 2.74 25.24 8.92 25.24 16.23C89.6 88.27 71.33 96 48 96 24.67 96 6.4 88.27 6.4 78.4c0-7.33 9.69-13.52 25.34-16.25a24.2 24.2 0 001.88-9.35c0-8.58-4.49-16.45-12-21.03a1.6 1.6 0 01-.61-.68z" fill="#edf2f7"/><g fill="#1a202c" fill-rule="nonzero"><path d="M22.45 76.8a1.6 1.6 0 01-.83-2.97 24.58 24.58 0 0012-21.03c0-8.58-4.49-16.45-12-21.03a1.6 1.6 0 111.66-2.74A27.75 27.75 0 0136.83 52.8c0 9.7-5.06 18.59-13.54 23.77-.26.16-.54.23-.83.23zM73.65 76.8a1.6 1.6 0 01-.84-.23A27.75 27.75 0 0159.28 52.8c0-9.7 5.06-18.59 13.53-23.77a1.6 1.6 0 111.67 2.73 24.58 24.58 0 00-12 21.04c0 8.58 4.49 16.44 12 21.03a1.6 1.6 0 01-.83 2.97z"/><path d="M48 35.2c-23.33 0-41.6-7.73-41.6-17.6C6.4 7.73 24.67 0 48 0c23.33 0 41.6 7.73 41.6 17.6 0 9.87-18.27 17.6-41.6 17.6zm0-32c-22.97 0-38.4 7.44-38.4 14.4C9.6 24.55 25.03 32 48 32s38.4-7.45 38.4-14.4c0-6.96-15.43-14.4-38.4-14.4z"/><path d="M48 28.8c-9.4 0-27.2-1.67-27.2-8s17.8-8 27.2-8c9.4 0 27.2 1.67 27.2 8s-17.8 8-27.2 8zM48 16c-15.59 0-24 3.4-24 4.8s8.41 4.8 24 4.8 24-3.4 24-4.8S63.59 16 48 16zM48 96C24.67 96 6.4 88.27 6.4 78.4c0-7.47 10.04-13.75 26.21-16.4l.52 3.17C19.27 67.43 9.6 72.87 9.6 78.4c0 6.95 15.43 14.4 38.4 14.4s38.4-7.44 38.4-14.4c0-5.5-9.63-10.95-23.43-13.22l.53-3.16c16.1 2.66 26.1 8.93 26.1 16.38C89.6 88.27 71.33 96 48 96z"/><path d="M48 83.2c-9.4 0-27.2-1.67-27.2-8 0-2.04 1.82-3.75 5.42-5.08l1.1 3C24.6 74.14 24 75.03 24 75.2c0 1.4 8.41 4.8 24 4.8s24-3.4 24-4.8c0-.17-.6-1.06-3.33-2.08l1.11-3c3.6 1.33 5.42 3.04 5.42 5.08 0 6.33-17.8 8-27.2 8z"/></g></svg>