<svg viewBox="0 0 250 250" xmlns="http://www.w3.org/2000/svg" fill-rule="evenodd" clip-rule="evenodd" stroke-linejoin="round" stroke-miterlimit="2"><g fill="#1a202c" fill-rule="nonzero"><path d="M58.47 200a4.16 4.16 0 01-2.18-7.73c19.57-11.95 31.25-32.42 31.25-54.77S75.86 94.67 56.3 82.72a4.17 4.17 0 014.35-7.11c22.06 13.47 35.24 36.6 35.24 61.89 0 25.27-13.18 48.41-35.24 61.89-.68.41-1.43.61-2.17.61zM191.8 200c-.75 0-1.5-.2-2.18-.6-22.07-13.48-35.24-36.62-35.24-61.9s13.17-48.41 35.24-61.9a4.16 4.16 0 114.35 7.12c-19.57 11.95-31.26 32.43-31.26 54.78s11.69 42.82 31.26 54.77a4.17 4.17 0 01-2.18 7.73zM105.5 105.07c-.7-3.43-1.09-5-1.97-8.03l8-2.34a92.85 92.85 0 012.14 8.68l-8.16 1.7zM108.01 123.1c-.3-3.78-.5-5.65-1-9.28l8.25-1.14c.53 3.8.74 5.8 1.06 9.75l-8.3.66zM116.85 142.55l-8.34-.22c.1-3.86.1-5.8 0-9.66l8.34-.22c.1 4.03.1 6.07 0 10.1zM115.26 162.32l-8.25-1.14c.5-3.63.7-5.5 1-9.27l8.31.66c-.32 3.95-.53 5.95-1.06 9.75zM111.53 180.3l-8-2.34c.89-3.03 1.27-4.6 1.98-8.04l8.17 1.69a93.84 93.84 0 01-2.15 8.69zM105.48 195.14L98.25 191a39.74 39.74 0 002.85-5.93l7.72 3.12a48.64 48.64 0 01-3.34 6.95z"/><path d="M144.75 105.07l-8.17-1.68a95.1 95.1 0 012.14-8.68l8 2.32a86.15 86.15 0 00-1.97 8.04zM142.25 123.1l-8.31-.67c.31-3.95.53-5.95 1.06-9.75l8.25 1.14c-.5 3.63-.7 5.5-1 9.27zM133.41 142.55a163 163 0 010-10.1l8.34.22c-.1 3.86-.1 5.8 0 9.66l-8.34.22zM135 162.32c-.53-3.8-.75-5.8-1.07-9.75l8.31-.66c.3 3.77.5 5.64 1 9.27l-8.25 1.14zM138.72 180.3c-.95-3.3-1.4-5.08-2.14-8.68l8.17-1.69c.7 3.4 1.08 4.96 1.98 8.04l-8 2.32zM144.77 195.14a48.83 48.83 0 01-3.33-6.94l7.72-3.14c1.1 2.7 1.63 3.8 2.85 5.94l-7.24 4.14z"/><path d="M125 91.67c-60.75 0-108.33-20.14-108.33-45.84C16.67 20.13 64.25 0 125 0s108.33 20.13 108.33 45.83S185.75 91.67 125 91.67zm0-83.34c-59.82 0-100 19.4-100 37.5 0 18.12 40.18 37.5 100 37.5s100-19.38 100-37.5c0-18.1-40.18-37.5-100-37.5z"/><path d="M125 75c-43.48 0-87.5-10.02-87.5-29.17 0-19.15 44.02-29.16 87.5-29.16 10.26 0 20.28.54 29.79 1.61l-.94 8.29A257.5 257.5 0 00125 25c-49.05 0-79.17 12.13-79.17 20.83 0 8.7 30.12 20.84 79.17 20.84s79.17-12.14 79.17-20.84c0-4.12-8.07-10.35-26.09-14.97l2.07-8.08c21.16 5.43 32.35 13.4 32.35 23.05C212.5 64.98 168.48 75 125 75z"/><path d="M170.25 29.08c-2.55-.5-5.2-.97-7.94-1.4l1.27-8.23c2.87.43 5.63.93 8.3 1.46l-1.63 8.17zM125 75c-24.5 0-70.83-4.35-70.83-20.83 0-16.48 46.33-20.84 70.83-20.84s70.83 4.36 70.83 20.84S149.5 75 125 75zm0-33.33c-40.6 0-62.5 8.87-62.5 12.5 0 3.63 21.9 12.5 62.5 12.5s62.5-8.87 62.5-12.5c0-3.63-21.9-12.5-62.5-12.5zM125 250c-60.75 0-108.33-20.13-108.33-45.83 0-19.45 26.15-35.81 68.26-42.7l1.34 8.23C50.2 175.6 25 189.77 25 204.17c0 18.1 40.18 37.5 100 37.5s100-19.4 100-37.5c0-14.35-25.09-28.5-61-34.43l1.35-8.22c41.93 6.91 67.98 23.25 67.98 42.65 0 25.7-47.58 45.83-108.33 45.83z"/><path d="M125 233.33c-43.48 0-87.5-10.01-87.5-29.16 0-12.53 18.44-19.66 33.9-23.44l1.99 8.1c-19.04 4.65-27.56 11.05-27.56 15.34 0 8.7 30.12 20.83 79.17 20.83 5.4 0 10.8-.16 16.01-.47l.5 8.32c-5.38.32-10.94.48-16.51.48zM150.53 232.15l-.78-8.29c2.79-.26 5.52-.57 8.17-.92l1.08 8.26c-2.75.36-5.58.68-8.47.95zM168.07 229.8l-1.45-8.2c25.8-4.58 37.55-12.25 37.55-17.43 0-4.26-8.43-10.63-27.26-15.27l2-8.1c15.32 3.79 33.59 10.91 33.59 23.37 0 15.45-27.84 22.7-44.42 25.63z"/><path d="M125 216.67c-24.5 0-70.83-4.36-70.83-20.84 0-5.3 4.74-9.76 14.1-13.22l2.9 7.81c-7.13 2.64-8.67 4.98-8.67 5.41 0 3.63 21.9 12.5 62.5 12.5s62.5-8.87 62.5-12.5c0-.43-1.54-2.77-8.67-5.4l2.9-7.82c9.36 3.46 14.1 7.91 14.1 13.22 0 16.48-46.33 20.84-70.83 20.84z"/></g></svg>